<svg width="24" height="24" viewBox="0 0 24 24" fill="none" xmlns="http://www.w3.org/2000/svg">
<path d="M13.9201 6.3685L13.6004 6.73693C13.5036 6.8486 13.3858 6.94011 13.2537 7.00624C13.1215 7.07238 12.9777 7.11184 12.8303 7.12237C12.6829 7.1329 12.5349 7.11431 12.3947 7.06764C12.2545 7.02097 12.1248 6.94714 12.0132 6.85037C11.9015 6.7536 11.81 6.63579 11.7439 6.50366C11.6777 6.37152 11.6383 6.22766 11.6277 6.08027C11.6065 5.78262 11.7043 5.4887 11.8997 5.26318L12.2485 4.861C12.2663 4.84131 12.2841 4.82162 12.3029 4.80287C13.2171 3.88862 14.4571 3.375 15.7501 3.375C16.3903 3.375 17.0242 3.5011 17.6157 3.74609C18.2071 3.99109 18.7446 4.35018 19.1972 4.80287C19.6499 5.25556 20.009 5.79299 20.254 6.38445C20.499 6.97592 20.6251 7.60986 20.6251 8.25006C20.6251 8.89026 20.499 9.52419 20.254 10.1157C20.009 10.7071 19.6499 11.2446 19.1972 11.6972C19.1785 11.716 19.1588 11.7338 19.1391 11.7516L18.7369 12.1004C18.6253 12.1971 18.4956 12.271 18.3554 12.3176C18.2152 12.3643 18.0672 12.3829 17.9198 12.3724C17.7725 12.3618 17.6286 12.3224 17.4965 12.2562C17.3643 12.1901 17.2465 12.0986 17.1497 11.9869C17.053 11.8753 16.9792 11.7456 16.9325 11.6054C16.8858 11.4652 16.8672 11.3172 16.8777 11.1698C16.8883 11.0225 16.9277 10.8786 16.9939 10.7465C17.06 10.6143 17.1515 10.4965 17.2632 10.3997L17.6316 10.0801C18.1076 9.58457 18.3703 8.92222 18.3634 8.23519C18.3565 7.54816 18.0806 6.89121 17.5947 6.40538C17.1089 5.91955 16.452 5.64357 15.7649 5.63667C15.0779 5.62978 14.4155 5.89252 13.9201 6.3685ZM11.9869 17.1497C11.8753 17.053 11.7457 16.9791 11.6055 16.9324C11.4653 16.8857 11.3172 16.8671 11.1698 16.8777C11.0225 16.8882 10.8786 16.9277 10.7464 16.9938C10.6143 17.06 10.4965 17.1515 10.3997 17.2632L10.0801 17.6316C9.58457 18.1076 8.92222 18.3703 8.23519 18.3634C7.54816 18.3565 6.89121 18.0806 6.40538 17.5947C5.91955 17.1089 5.64357 16.452 5.63667 15.7649C5.62978 15.0779 5.89252 14.4155 6.3685 13.9201L6.73693 13.6004C6.96245 13.4049 7.1011 13.1279 7.12237 12.8303C7.14364 12.5326 7.0458 12.2387 6.85037 12.0132C6.65494 11.7877 6.37793 11.649 6.08027 11.6277C5.78262 11.6065 5.4887 11.7043 5.26318 11.8997L4.861 12.2485C4.84131 12.2663 4.82162 12.2841 4.80287 12.3029C3.88862 13.2171 3.375 14.4571 3.375 15.7501C3.375 17.043 3.88862 18.283 4.80287 19.1972C5.71712 20.1115 6.95711 20.6251 8.25006 20.6251C9.543 20.6251 10.783 20.1115 11.6972 19.1972C11.716 19.1785 11.7338 19.1588 11.7516 19.1391L12.1004 18.7369C12.1972 18.6253 12.271 18.4957 12.3177 18.3555C12.3644 18.2153 12.383 18.0672 12.3724 17.9198C12.3619 17.7725 12.3224 17.6286 12.2563 17.4964C12.1901 17.3643 12.0986 17.2465 11.9869 17.1497ZM19.5001 13.8751H17.6251C17.3267 13.8751 17.0405 13.9936 16.8296 14.2046C16.6186 14.4155 16.5001 14.7017 16.5001 15.0001C16.5001 15.2984 16.6186 15.5846 16.8296 15.7956C17.0405 16.0065 17.3267 16.1251 17.6251 16.1251H19.5001C19.7984 16.1251 20.0846 16.0065 20.2956 15.7956C20.5065 15.5846 20.6251 15.2984 20.6251 15.0001C20.6251 14.7017 20.5065 14.4155 20.2956 14.2046C20.0846 13.9936 19.7984 13.8751 19.5001 13.8751ZM4.50006 10.1251H6.37506C6.67343 10.1251 6.95958 10.0065 7.17055 9.79555C7.38153 9.58458 7.50006 9.29843 7.50006 9.00006C7.50006 8.70169 7.38153 8.41554 7.17055 8.20456C6.95958 7.99359 6.67343 7.87506 6.37506 7.87506H4.50006C4.20169 7.87506 3.91554 7.99359 3.70456 8.20456C3.49359 8.41554 3.37506 8.70169 3.37506 9.00006C3.37506 9.29843 3.49359 9.58458 3.70456 9.79555C3.91554 10.0065 4.20169 10.1251 4.50006 10.1251ZM15.0001 16.5001C14.7017 16.5001 14.4155 16.6186 14.2046 16.8296C13.9936 17.0405 13.8751 17.3267 13.8751 17.6251V19.5001C13.8751 19.7984 13.9936 20.0846 14.2046 20.2956C14.4155 20.5065 14.7017 20.6251 15.0001 20.6251C15.2984 20.6251 15.5846 20.5065 15.7956 20.2956C16.0065 20.0846 16.1251 19.7984 16.1251 19.5001V17.6251C16.1251 17.3267 16.0065 17.0405 15.7956 16.8296C15.5846 16.6186 15.2984 16.5001 15.0001 16.5001ZM9.00006 7.50006C9.29843 7.50006 9.58458 7.38153 9.79555 7.17055C10.0065 6.95958 10.1251 6.67343 10.1251 6.37506V4.50006C10.1251 4.20169 10.0065 3.91554 9.79555 3.70456C9.58458 3.49359 9.29843 3.37506 9.00006 3.37506C8.70169 3.37506 8.41554 3.49359 8.20456 3.70456C7.99359 3.91554 7.87506 4.20169 7.87506 4.50006V6.37506C7.87506 6.67343 7.99359 6.95958 8.20456 7.17055C8.41554 7.38153 8.70169 7.50006 9.00006 7.50006Z" fill="white"/>
</svg>
