<svg width="24" height="24" viewBox="0 0 24 24" fill="none" xmlns="http://www.w3.org/2000/svg">
<path d="M12.7845 17.581C12.8894 17.6855 12.9726 17.8097 13.0294 17.9464C13.0862 18.0832 13.1154 18.2298 13.1154 18.3779C13.1154 18.5259 13.0862 18.6725 13.0294 18.8093C12.9726 18.946 12.8894 19.0702 12.7845 19.1747L12.2276 19.7316C11.1724 20.7868 9.74119 21.3797 8.24887 21.3797C6.75655 21.3797 5.32535 20.7868 4.27012 19.7316C3.21489 18.6764 2.62207 17.2452 2.62207 15.7529C2.62207 14.2605 3.21489 12.8293 4.27012 11.7741L6.53137 9.51379C7.54526 8.49739 8.90941 7.90713 10.3444 7.8639C11.7794 7.82068 13.1766 8.32776 14.2498 9.28129C14.3606 9.37978 14.4509 9.49913 14.5156 9.63253C14.5803 9.76593 14.6181 9.91076 14.6268 10.0587C14.6355 10.2067 14.6149 10.355 14.5663 10.4951C14.5178 10.6351 14.4421 10.7642 14.3436 10.875C14.2451 10.9858 14.1257 11.0762 13.9923 11.1408C13.8589 11.2055 13.7141 11.2433 13.5661 11.252C13.4181 11.2607 13.2698 11.2402 13.1298 11.1916C12.9897 11.143 12.8606 11.0673 12.7498 10.9688C12.1062 10.3972 11.2686 10.0931 10.4082 10.1188C9.54787 10.1444 8.7298 10.4978 8.12137 11.1066L5.862 13.3641C5.22896 13.9971 4.87332 14.8557 4.87332 15.751C4.87332 16.6462 5.22896 17.5048 5.862 18.1379C6.49504 18.7709 7.35362 19.1265 8.24887 19.1265C9.14412 19.1265 10.0027 18.7709 10.6357 18.1379L11.1926 17.581C11.2971 17.4764 11.4212 17.3934 11.5578 17.3368C11.6943 17.2802 11.8407 17.251 11.9886 17.251C12.1364 17.251 12.2828 17.2802 12.4194 17.3368C12.5559 17.3934 12.68 17.4764 12.7845 17.581ZM19.7295 4.26848C18.6734 3.21487 17.2425 2.62317 15.7507 2.62317C14.259 2.62317 12.8281 3.21487 11.772 4.26848L11.2151 4.82535C11.0038 5.0367 10.885 5.32334 10.885 5.62223C10.885 5.92111 11.0038 6.20776 11.2151 6.4191C11.4265 6.63045 11.7131 6.74918 12.012 6.74918C12.3109 6.74918 12.5975 6.63045 12.8089 6.4191L13.3657 5.86223C13.9988 5.22919 14.8574 4.87355 15.7526 4.87355C16.6479 4.87355 17.5065 5.22919 18.1395 5.86223C18.7725 6.49527 19.1282 7.35385 19.1282 8.2491C19.1282 9.14435 18.7725 10.0029 18.1395 10.636L15.8792 12.8972C15.2702 13.5058 14.4517 13.8587 13.5911 13.8836C12.7305 13.9085 11.893 13.6036 11.2498 13.0313C11.139 12.9328 11.0099 12.8571 10.8698 12.8085C10.7298 12.7599 10.5815 12.7394 10.4335 12.7481C10.2855 12.7568 10.1407 12.7946 10.0073 12.8592C9.8739 12.9239 9.75455 13.0142 9.65606 13.125C9.55757 13.2358 9.48187 13.365 9.43328 13.505C9.38468 13.6451 9.36415 13.7933 9.37286 13.9413C9.38156 14.0893 9.41933 14.2342 9.48401 14.3676C9.54869 14.5009 9.63901 14.6203 9.74981 14.7188C10.8223 15.6721 12.2186 16.1795 13.6529 16.1372C15.0872 16.0948 16.4511 15.5059 17.4654 14.491L19.7267 12.2307C20.7815 11.1748 21.3743 9.74356 21.3748 8.25109C21.3753 6.75862 20.7836 5.32693 19.7295 4.27035V4.26848Z" fill="white"/>
</svg>
